#!OML:ASF H:\LiuWeirdWalks\Patient Classification 1\Patient 1\Session 1\male.ASF
:FULLY-SPECIFIED
:DEGREES
270
root 1.00829 17.663 -21.7108 6.1167 4.20795 4.25519
lowerback 7.52082 -0.547206 -7.49784
upperback -0.468389 -1.31486 1.96175
thorax -4.50945 -0.447693 6.44361
lowerneck -23.7435 1.85261 8.36045
upperneck 15.2257 1.3084 -7.61235
head 8.74497 0.266474 -3.80495
rclavicle -1.07344e-014 2.78299e-014
rhumerus -28.8783 -2.18066 -80.5025
rradius 35.4492
rwrist -8.57122
rhand -16.3622 -0.352971
rfingers 7.12502
rthumb 9.85071 -30.1025
lclavicle -1.07344e-014 2.78299e-014
lhumerus -28.6306 0.866211 84.8046
lradius 28.5202
lwrist 6.36334
lhand -17.2645 -2.93736
lfingers 7.12502
lthumb 8.98008 26.8515
rfemur -40.5456 -2.87188 13.926
rtibia 37.8364
rfoot -9.86259 -20.1103
rtoes -11.1212
lfemur 0.167293 -3.76946 -24.8546
ltibia 19.7117
lfoot -15.7823 13.6852
ltoes -12.2968
271
root 1.00685 17.6393 -21.5755 6.13678 4.24054 4.44237
lowerback 7.5183 -0.56721 -7.59685
upperback -0.420404 -1.35037 1.92939
thorax -4.45031 -0.467555 6.46841
lowerneck -23.7664 1.83413 8.27526
upperneck 15.0824 1.29471 -7.56829
head 8.69754 0.258465 -3.7745
rclavicle 2.27608e-014 1.27222e-014
rhumerus -28.8653 -2.1325 -80.5048
rradius 35.4468
rwrist -8.66834
rhand -16.3872 -0.40767
rfingers 7.12502
rthumb 9.82657 -30.1584
lclavicle 2.27608e-014 1.27222e-014
lhumerus -28.4049 0.511677 84.9591
lradius 28.7123
lwrist 6.49781
lhand -17.187 -2.90424
lfingers 7.12502
lthumb 9.0549 26.8814
rfemur -40.9748 -2.6364 13.5547
rtibia 37.4637
rfoot -9.27609 -19.5999
rtoes -11.4173
lfemur 0.980983 -3.75714 -25.0521
ltibia 19.1043
lfoot -15.8504 13.7427
ltoes -12.4199
272
root 1.00459 17.6121 -21.4385 6.14972 4.27608 4.62777
lowerback 7.51909 -0.591345 -7.69563
upperback -0.382055 -1.3915 1.90419
thorax -4.40202 -0.489395 6.50156
lowerneck -23.6905 1.83991 8.26127
upperneck 14.8623 1.31158 -7.60492
head 8.61114 0.261432 -3.77736
rclavicle -2.88238e-015 -1.90833e-014
rhumerus -28.8751 -2.05114 -80.5029
rradius 35.4392
rwrist -8.73117
rhand -16.403 -0.445355
rfingers 7.12502
rthumb 9.81139 -30.1968
lclavicle -2.88238e-015 -1.90833e-014
lhumerus -28.2289 0.172099 85.1232
lradius 28.9196
lwrist 6.65537
lhand -17.1267 -2.89823
lfingers 7.12502
lthumb 9.11307 26.8849
rfemur -41.4024 -2.44594 13.2068
rtibia 37.2767
rfoot -8.85586 -19.1451
rtoes -11.6238
lfemur 1.7998 -3.77301 -25.2535
ltibia 18.5204
lfoot -15.9274 13.8569
ltoes -12.5755
273
root 1.00144 17.5815 -21.2997 6.15436 4.31814 4.79267
lowerback 7.52607 -0.61759 -7.77556
upperback -0.346111 -1.43374 1.89045
thorax -4.35957 -0.511805 6.53648
lowerneck -23.5635 1.84939 8.25003
upperneck 14.5754 1.33394 -7.6438
head 8.49414 0.267536 -3.77892
rclavicle 1.03368e-014 1.59028e-014
rhumerus -28.8895 -1.93671 -80.4988
rradius 35.4365
rwrist -8.77468
rhand -16.4255 -0.513325
rfingers 7.12502
rthumb 9.78966 -30.2658
lclavicle 1.03368e-014 1.59028e-014
lhumerus -28.0832 -0.150757 85.298
lradius 29.1455
lwrist 6.81047
lhand -17.0537 -2.93096
lfingers 7.12502
lthumb 9.18354 26.8491
rfemur -41.8225 -2.2881 12.9009
rtibia 37.2611
rfoot -8.56098 -18.7646
rtoes -11.7086
lfemur 2.6193 -3.81633 -25.4373
ltibia 17.9687
lfoot -16.0135 14.0221
ltoes -12.7694
274
root 0.997508 17.5478 -21.1591 6.15559 4.36262 4.94994
lowerback 7.53642 -0.642644 -7.8461
upperback -0.323835 -1.474 1.88181
thorax -4.33377 -0.532206 6.57162
lowerneck -23.3972 1.84878 8.18955
upperneck 14.3056 1.35444 -7.64343
head 8.37598 0.275143 -3.75911
rclavicle 1.3418e-014 -1.66979e-014
rhumerus -28.939 -1.79303 -80.4902
rradius 35.4565
rwrist -8.79898
rhand -16.435 -0.601605
rfingers 7.12502
rthumb 9.78046 -30.3545
lclavicle 1.3418e-014 -1.66979e-014
lhumerus -27.9781 -0.477183 85.4845
lradius 29.3681
lwrist 6.97662
lhand -16.9914 -3.00572
lfingers 7.12502
lthumb 9.24367 26.7717
rfemur -42.2366 -2.15077 12.6164
rtibia 37.4055
rfoot -8.38272 -18.4691
rtoes -11.6875
lfemur 3.43569 -3.88954 -25.6195
ltibia 17.4472
lfoot -16.0998 14.2362
ltoes -13.0199
275
root 0.992714 17.5115 -21.0163 6.15458 4.40711 5.09734
lowerback 7.53924 -0.666234 -7.90988
upperback -0.297086 -1.51064 1.87978
thorax -4.2995 -0.551474 6.60924
lowerneck -23.2362 1.85523 8.12286
upperneck 14.0224 1.38437 -7.63896
head 8.25524 0.287339 -3.73557
rclavicle 1.48095e-014 1.59028e-015
rhumerus -28.975 -1.63036 -80.4804
rradius 35.4858
rwrist -8.81265
rhand -16.431 -0.683796
rfingers 7.12502
rthumb 9.78438 -30.4365
lclavicle 1.48095e-014 1.59028e-015
lhumerus -27.8703 -0.790555 85.6825
lradius 29.5836
lwrist 7.13451
lhand -16.9395 -3.11238
lfingers 7.12502
lthumb 9.29375 26.6628
rfemur -42.6393 -2.01905 12.3491
rtibia 37.6939
rfoot -8.30725 -18.2701
rtoes -11.5867
lfemur 4.24744 -3.98002 -25.7952
ltibia 16.9558
lfoot -16.1833 14.4807
ltoes -13.3103
276
root 0.987268 17.4728 -20.8706 6.14621 4.4374 5.22943
lowerback 7.53069 -0.687686 -7.96144
upperback -0.266241 -1.54192 1.88526
thorax -4.2554 -0.568921 6.64685
lowerneck -23.1384 1.84404 7.99894
upperneck 13.8183 1.39757 -7.58616
head 8.16984 0.293027 -3.69044
rclavicle -2.52457e-014 -7.95139e-016
rhumerus -29.0081 -1.44274 -80.4712
rradius 35.536
rwrist -8.81403
rhand -16.4014 -0.740169
rfingers 7.12502
rthumb 9.81293 -30.4915
lclavicle -2.52457e-014 -7.95139e-016
lhumerus -27.7662 -1.07521 85.8848
lradius 29.7855
lwrist 7.28781
lhand -16.8894 -3.23796
lfingers 7.12502
lthumb 9.34203 26.535
rfemur -43.0232 -1.88183 12.1052
rtibia 38.1138
rfoot -8.24299 -18.1515
rtoes -11.4782
lfemur 5.06644 -4.05378 -25.9567
ltibia 16.4858
lfoot -16.2756 14.7343
ltoes -13.6257
277
root 0.981091 17.432 -20.7222 6.13904 4.47267 5.36129
lowerback 7.51298 -0.712274 -8.01124
upperback -0.235118 -1.57631 1.89365
thorax -4.2052 -0.588267 6.68657
lowerneck -23.0895 1.84061 7.87411
upperneck 13.6573 1.41985 -7.53461
head 8.10799 0.302295 -3.64577
rclavicle 9.64106e-015 0
rhumerus -29.0313 -1.2425 -80.4625
rradius 35.5937
rwrist -8.82641
rhand -16.3532 -0.744453
rfingers 7.12502
rthumb 9.85944 -30.4936
lclavicle 9.64106e-015 0
lhumerus -27.6598 -1.32613 86.0879
lradius 29.9686
lwrist 7.40695
lhand -16.833 -3.29823
lfingers 7.12502
lthumb 9.39646 26.4723
rfemur -43.3907 -1.76264 11.8718
rtibia 38.6507
rfoot -8.21362 -18.131
rtoes -11.3285
lfemur 5.88907 -4.11627 -26.1157
ltibia 16.0294
lfoot -16.3725 14.9881
ltoes -13.954
278
root 0.973996 17.3894 -20.5708 6.13645 4.51174 5.49917
lowerback 7.47869 -0.740182 -8.06703
upperback -0.207869 -1.61443 1.90092
thorax -4.14889 -0.609562 6.72836
lowerneck -23.0499 1.83812 7.77934
upperneck 13.4995 1.43715 -7.50456
head 8.04884 0.308553 -3.61438
rclavicle 2.23633e-014 3.33958e-014
rhumerus -29.0524 -1.03774 -80.4571
rradius 35.6579
rwrist -8.84978
rhand -16.2943 -0.688492
rfingers 7.12502
rthumb 9.9162 -30.4349
lclavicle 2.23633e-014 3.33958e-014
lhumerus -27.5662 -1.55266 86.2901
lradius 30.1391
lwrist 7.51801
lhand -16.8117 -3.32994
lfingers 7.12502
lthumb 9.41703 26.4397
rfemur -43.741 -1.66425 11.6466
rtibia 39.2947
rfoot -8.1778 -18.2066
rtoes -11.2083
lfemur 6.71625 -4.1682 -26.2775
ltibia 15.5779
lfoot -16.4616 15.2514
ltoes -14.2853
279
root 0.965609 17.3455 -20.4157 6.13376 4.5485 5.63071
lowerback 7.42597 -0.771556 -8.12363
upperback -0.178832 -1.65548 1.91095
thorax -4.07961 -0.633017 6.77313
lowerneck -23.0228 1.85865 7.73488
upperneck 13.3079 1.4736 -7.50867
head 7.98274 0.322813 -3.60004
rclavicle 1.68967e-015 -7.95139e-015
rhumerus -29.066 -0.821788 -80.4593
rradius 35.7291
rwrist -8.89211
rhand -16.2233 -0.61249
rfingers 7.12502
rthumb 9.98473 -30.3557
lclavicle 1.68967e-015 -7.95139e-015
lhumerus -27.489 -1.7457 86.487
lradius 30.3037
lwrist 7.60069
lhand -16.8309 -3.33209
lfingers 7.12502
lthumb 9.39855 26.4384
rfemur -44.0685 -1.57445 11.4465
rtibia 40.0364
rfoot -8.10641 -18.376
rtoes -11.0788
lfemur 7.55099 -4.1948 -26.4242
ltibia 15.1371
lfoot -16.5456 15.5139
ltoes -14.6215
280
root 0.955441 17.3003 -20.2572 6.13967 4.58418 5.75455
lowerback 7.35528 -0.804375 -8.18978
upperback -0.165852 -1.69802 1.92645
thorax -4.01639 -0.656186 6.82902
lowerneck -22.9444 1.89788 7.77793
upperneck 13.0852 1.52471 -7.59224
head 7.90063 0.341352 -3.62457
rclavicle 8.84592e-015 9.54166e-015
rhumerus -29.0889 -0.623263 -80.4593
rradius 35.7866
rwrist -8.91748
rhand -16.1424 -0.536733
rfingers 7.12502
rthumb 10.0628 -30.2761
lclavicle 8.84592e-015 9.54166e-015
lhumerus -27.4665 -1.9247 86.6871
lradius 30.4679
lwrist 7.67534
lhand -16.8834 -3.35592
lfingers 7.12502
lthumb 9.34788 26.4168
rfemur -44.3837 -1.49451 11.2776
rtibia 40.881
rfoot -7.97647 -18.6225
rtoes -10.9773
lfemur 8.38701 -4.19618 -26.5498
ltibia 14.6931
lfoot -16.6037 15.7763
ltoes -14.9825
